<svg xmlns="http://www.w3.org/2000/svg" width="15.734" height="17.902" viewBox="0 0 15.734 17.902">
  <g id="bin" transform="translate(-31)">
    <g id="Group_48296" data-name="Group 48296" transform="translate(32.091 5.245)">
      <g id="Group_48295" data-name="Group 48295">
        <path id="Path_43010" data-name="Path 43010" d="M62.2,150l.929,11.214a1.582,1.582,0,0,0,1.567,1.443h8.559a1.582,1.582,0,0,0,1.567-1.443L75.757,150Zm4.153,10.559a.524.524,0,0,1-.523-.492l-.524-8.461a.524.524,0,0,1,.491-.556.516.516,0,0,1,.556.491L66.882,160A.525.525,0,0,1,66.358,160.559Zm3.147-.524a.524.524,0,1,1-1.049,0v-8.461a.524.524,0,1,1,1.049,0Zm3.146-8.429-.524,8.461A.524.524,0,0,1,71.08,160l.524-8.461a.533.533,0,0,1,.556-.491A.524.524,0,0,1,72.651,151.606Z" transform="translate(-62.205 -150)" fill="#f32a0c"/>
      </g>
    </g>
    <g id="Group_48298" data-name="Group 48298" transform="translate(31)">
      <g id="Group_48297" data-name="Group 48297">
        <path id="Path_43011" data-name="Path 43011" d="M45.685,2.1H42.538V1.573A1.575,1.575,0,0,0,40.965,0h-4.2A1.575,1.575,0,0,0,35.2,1.573V2.1H32.049a1.049,1.049,0,0,0,0,2.1H45.685a1.049,1.049,0,0,0,0-2.1Zm-4.2,0H36.245V1.573a.525.525,0,0,1,.524-.524h4.2a.525.525,0,0,1,.524.524Z" transform="translate(-31)" fill="#f32a0c"/>
      </g>
    </g>
  </g>
</svg>
