<svg id="google" xmlns="http://www.w3.org/2000/svg" width="30.657" height="30.657" viewBox="0 0 30.657 30.657">
  <path id="Path_33642" data-name="Path 33642" d="M280.636,211.48h-12.5a1,1,0,0,0-1,1v3.995a1,1,0,0,0,1,1h7.042a9.4,9.4,0,0,1-4.046,4.742l3,5.2a15.03,15.03,0,0,0,7.664-13.145,10.132,10.132,0,0,0-.172-1.963A1,1,0,0,0,280.636,211.48Z" transform="translate(-251.136 -198.816)" fill="#167ee6"/>
  <path id="Path_33643" data-name="Path 33643" d="M47.679,338.516a9.329,9.329,0,0,1-8.07-4.669l-5.2,3a15.316,15.316,0,0,0,20.932,5.618v-.007l-3-5.2A9.261,9.261,0,0,1,47.679,338.516Z" transform="translate(-32.351 -313.857)" fill="#12b347"/>
  <path id="Path_33644" data-name="Path 33644" d="M263.664,395.984v-.007l-3-5.2a9.261,9.261,0,0,1-4.662,1.26v6A15.3,15.3,0,0,0,263.664,395.984Z" transform="translate(-240.671 -367.38)" fill="#0f993e"/>
  <path id="Path_33645" data-name="Path 33645" d="M6,135.776a9.261,9.261,0,0,1,1.26-4.661l-5.2-3a15.258,15.258,0,0,0,0,15.314l5.2-3A9.261,9.261,0,0,1,6,135.776Z" transform="translate(0 -120.448)" fill="#ffd500"/>
  <path id="Path_33646" data-name="Path 33646" d="M47.679,6A9.287,9.287,0,0,1,53.6,8.125a1,1,0,0,0,1.34-.06l2.83-2.83a1.007,1.007,0,0,0-.058-1.473,15.3,15.3,0,0,0-23.3,3.91l5.2,3A9.329,9.329,0,0,1,47.679,6Z" transform="translate(-32.351)" fill="#ff4b26"/>
  <path id="Path_33647" data-name="Path 33647" d="M261.924,8.125a1,1,0,0,0,1.34-.06l2.83-2.83a1.007,1.007,0,0,0-.058-1.473A15.282,15.282,0,0,0,256,0V6A9.288,9.288,0,0,1,261.924,8.125Z" transform="translate(-240.671)" fill="#d93f21"/>
</svg>
