<svg xmlns="http://www.w3.org/2000/svg" width="18.378" height="18.378" viewBox="0 0 18.378 18.378">
  <g id="Group_48218" data-name="Group 48218" transform="translate(-10.647 -10.647)">
    <g id="enter" transform="translate(10.647 10.647)">
      <path id="Path_42981" data-name="Path 42981" d="M181.252.011c-.019,0-.035-.011-.055-.011h-8.232a2.3,2.3,0,0,0-2.3,2.3v.766a.766.766,0,1,0,1.531,0V2.3a.767.767,0,0,1,.766-.766h3.568l-.234.078a1.539,1.539,0,0,0-1.037,1.453V14.549h-2.3a.767.767,0,0,1-.766-.766V12.252a.766.766,0,1,0-1.531,0v1.532a2.3,2.3,0,0,0,2.3,2.3h2.3v.766a1.533,1.533,0,0,0,1.531,1.532,1.607,1.607,0,0,0,.488-.076l4.6-1.534a1.539,1.539,0,0,0,1.038-1.453V1.532a1.534,1.534,0,0,0-1.668-1.52Zm0,0" transform="translate(-164.542)" fill="#fff"/>
      <path id="Path_42982" data-name="Path 42982" d="M8.2,109.95l-3.063-3.063a.765.765,0,0,0-1.307.541v2.3H.766a.766.766,0,0,0,0,1.532H3.829v2.3a.765.765,0,0,0,1.307.541L8.2,111.033a.765.765,0,0,0,0-1.083Zm0,0" transform="translate(0 -102.834)" fill="#fff"/>
    </g>
  </g>
</svg>
