<svg id="user_5_" data-name="user (5)" xmlns="http://www.w3.org/2000/svg" width="24.787" height="23.754" viewBox="0 0 24.787 23.754">
  <path id="Path_42984" data-name="Path 42984" d="M327.488,260.131h-.258v-1.549a2.582,2.582,0,0,0-5.164,0v1.549h-.258A1.809,1.809,0,0,0,320,261.939v3.615a1.809,1.809,0,0,0,1.807,1.807h5.68a1.809,1.809,0,0,0,1.807-1.807v-3.615A1.809,1.809,0,0,0,327.488,260.131Zm-3.873-1.549a1.033,1.033,0,0,1,2.065,0v1.549h-2.065Zm0,0" transform="translate(-304.508 -243.607)" fill="#8eaec4"/>
  <path id="Path_42985" data-name="Path 42985" d="M13.942,261.938a3.362,3.362,0,0,1,2.066-3.1v-.258a4.083,4.083,0,0,1,.4-1.751A4.881,4.881,0,0,0,13.684,256H4.906A4.911,4.911,0,0,0,0,260.906v3.615a.775.775,0,0,0,.775.775H13.943Zm0,0" transform="translate(0 -243.607)"/>
  <path id="Path_42986" data-name="Path 42986" d="M95.66,5.164A5.164,5.164,0,1,1,90.5,0,5.164,5.164,0,0,1,95.66,5.164Zm0,0" transform="translate(-81.201)"/>
</svg>
