<svg xmlns="http://www.w3.org/2000/svg" width="98.022" height="26.644" viewBox="0 0 98.022 26.644">
  <g id="logo-no-background" transform="translate(-1.59 36.35)">
    <g id="Group_48150" data-name="Group 48150" transform="translate(1.59 -36.35)">
      <g id="tight-bounds" transform="translate(0 0)">
        <g id="Group_48149" data-name="Group 48149" transform="translate(0)">
          <g id="Group_48148" data-name="Group 48148">
            <g id="Group_48147" data-name="Group 48147">
              <g id="Group_48146" data-name="Group 48146">
                <g id="Group_48145" data-name="Group 48145">
                  <g id="textblocktransform">
                    <g id="textblock">
                      <g id="Group_48144" data-name="Group 48144">
                        <g id="Group_48143" data-name="Group 48143">
                          <g id="Group_48142" data-name="Group 48142">
                            <g id="Group_48141" data-name="Group 48141">
                              <path id="text-0" d="M10.973-36.6h0A8.052,8.052,0,0,1,13-36.363a3.433,3.433,0,0,1,1.386.625h0l-.718,2.765a3.1,3.1,0,0,0-.9-.381,4.89,4.89,0,0,0-1.149-.122h0a3.568,3.568,0,0,0-2.312.682,2.694,2.694,0,0,0-.847,2.226h0v2.621l.108.97v16.661H4.725V-30.855A6.73,6.73,0,0,1,5.142-33.3a4.526,4.526,0,0,1,1.235-1.81,5.5,5.5,0,0,1,2-1.12A8.481,8.481,0,0,1,10.973-36.6ZM1.35-28.269H14.277v3.016H1.35Zm16.266-8.079h3.842v21.006a2.719,2.719,0,0,0,.467,1.831,2.029,2.029,0,0,0,1.544.5h0a5.42,5.42,0,0,0,1.092-.093,7.467,7.467,0,0,0,1.135-.338h0l-.431,2.873a6.328,6.328,0,0,1-1.4.452,8.038,8.038,0,0,1-1.58.158h0A4.573,4.573,0,0,1,18.744-11.2a5.528,5.528,0,0,1-1.128-3.821h0Zm17.7,26.392h0a8.086,8.086,0,0,1-3.246-.646,5.223,5.223,0,0,1-2.384-2.083,6.956,6.956,0,0,1-.9-3.734h0v-11.85h3.835v10.88q0,2.442,1.041,3.354a4.264,4.264,0,0,0,2.909.919h0a5.059,5.059,0,0,0,1.745-.309,4.171,4.171,0,0,0,1.53-.97A4.5,4.5,0,0,0,40.9-16.1a7.107,7.107,0,0,0,.381-2.442h0v-9.731h3.842v17.954H41.739l-.18-2.909a5.781,5.781,0,0,1-2.514,2.478A8.259,8.259,0,0,1,35.312-9.956ZM53.05-31.286h0a2.669,2.669,0,0,1-1.917-.632,2.31,2.31,0,0,1-.668-1.774h0a2.263,2.263,0,0,1,.668-1.759,2.728,2.728,0,0,1,1.917-.61h0a2.7,2.7,0,0,1,1.889.61,2.277,2.277,0,0,1,.661,1.759h0a2.324,2.324,0,0,1-.661,1.774A2.641,2.641,0,0,1,53.05-31.286Zm-1.939,3.016h3.842v17.954H51.111ZM67.845-9.956h0a7.55,7.55,0,0,1-4.036-1.113,7.656,7.656,0,0,1-2.858-3.2,11.053,11.053,0,0,1-1.041-4.991h0a10.7,10.7,0,0,1,1.113-5.1A7.919,7.919,0,0,1,64-27.537,7.965,7.965,0,0,1,68.1-28.628h0a6.034,6.034,0,0,1,3.878,1.257A6.066,6.066,0,0,1,74.093-24.1h0l-.431.395v-12.64H77.5v26.033H74.093L73.805-15.2l.5.036a5.767,5.767,0,0,1-1.185,2.779,6.174,6.174,0,0,1-2.312,1.8A7.065,7.065,0,0,1,67.845-9.956Zm.826-3.088h0a4.472,4.472,0,0,0,2.657-.79,5.09,5.09,0,0,0,1.724-2.226,8.789,8.789,0,0,0,.61-3.447h0a7.762,7.762,0,0,0-.61-3.217,4.738,4.738,0,0,0-1.7-2.061,4.529,4.529,0,0,0-2.535-.718h0a4.521,4.521,0,0,0-3.734,1.652,7.086,7.086,0,0,0-1.329,4.56h0a7.288,7.288,0,0,0,1.293,4.575A4.32,4.32,0,0,0,68.671-13.044ZM91.364-9.956h0a9.765,9.765,0,0,1-4.74-1.113,7.776,7.776,0,0,1-3.181-3.217,10.43,10.43,0,0,1-1.128-5.006h0a10.472,10.472,0,0,1,1.128-5.013,7.848,7.848,0,0,1,3.146-3.21,9.257,9.257,0,0,1,4.56-1.113h0A8.64,8.64,0,0,1,95.6-27.551a7.21,7.21,0,0,1,2.8,2.944,9.059,9.059,0,0,1,.97,4.237h0q0,.646-.036,1.221a9.977,9.977,0,0,1-.108,1.005H84.793v-2.944H97.541l-1.9.575a5.318,5.318,0,0,0-1.221-3.756,4.347,4.347,0,0,0-3.339-1.307h0a4.975,4.975,0,0,0-2.693.718,4.553,4.553,0,0,0-1.759,2.133,8.786,8.786,0,0,0-.61,3.469h0a8.106,8.106,0,0,0,.646,3.411,4.7,4.7,0,0,0,1.831,2.119,5.3,5.3,0,0,0,2.8.718h0a5.507,5.507,0,0,0,2.909-.682,4.829,4.829,0,0,0,1.759-1.9h0l3.052,1.436a7.162,7.162,0,0,1-1.745,2.241,7.494,7.494,0,0,1-2.6,1.458A10.393,10.393,0,0,1,91.364-9.956Z" transform="translate(-1.35 36.6)"/>
                            </g>
                          </g>
                        </g>
                      </g>
                    </g>
                  </g>
                </g>
              </g>
            </g>
          </g>
        </g>
      </g>
    </g>
  </g>
</svg>
