<svg xmlns="http://www.w3.org/2000/svg" width="17.186" height="12.084" viewBox="0 0 17.186 12.084">
  <g id="mail" transform="translate(0 -76)">
    <g id="Group_46732" data-name="Group 46732" transform="translate(11.823 76.863)">
      <g id="Group_46731" data-name="Group 46731" transform="translate(0 0)">
        <path id="Path_42043" data-name="Path 42043" d="M357.423,101.721l-5.212,5.179,5.212,5.179a1.493,1.493,0,0,0,.151-.647v-9.063A1.493,1.493,0,0,0,357.423,101.721Z" transform="translate(-352.211 -101.721)"/>
      </g>
    </g>
    <g id="Group_46734" data-name="Group 46734" transform="translate(0.863 76)">
      <g id="Group_46733" data-name="Group 46733" transform="translate(0 0)">
        <path id="Path_42044" data-name="Path 42044" d="M40.533,76H26.368a1.493,1.493,0,0,0-.647.151l6.662,6.628a1.512,1.512,0,0,0,2.136,0l6.662-6.628A1.493,1.493,0,0,0,40.533,76Z" transform="translate(-25.721 -76)"/>
      </g>
    </g>
    <g id="Group_46736" data-name="Group 46736" transform="translate(0 76.863)">
      <g id="Group_46735" data-name="Group 46735" transform="translate(0 0)">
        <path id="Path_42045" data-name="Path 42045" d="M.151,101.721a1.493,1.493,0,0,0-.151.647v9.063a1.493,1.493,0,0,0,.151.647L5.364,106.9Z" transform="translate(0 -101.721)"/>
      </g>
    </g>
    <g id="Group_46738" data-name="Group 46738" transform="translate(0.863 82.754)">
      <g id="Group_46737" data-name="Group 46737" transform="translate(0 0)">
        <path id="Path_42046" data-name="Path 42046" d="M35.968,277.211l-.738.738a2.52,2.52,0,0,1-3.56,0l-.738-.738-5.212,5.179a1.492,1.492,0,0,0,.647.151H40.533a1.492,1.492,0,0,0,.647-.151Z" transform="translate(-25.721 -277.211)"/>
      </g>
    </g>
  </g>
</svg>
