<svg xmlns="http://www.w3.org/2000/svg" xmlns:xlink="http://www.w3.org/1999/xlink" width="89.204" height="89.204" viewBox="0 0 89.204 89.204">
  <defs>
    <filter id="Path_42967" x="0" y="0" width="89.204" height="89.204" filterUnits="userSpaceOnUse">
      <feOffset dy="3" input="SourceAlpha"/>
      <feGaussianBlur stdDeviation="3" result="blur"/>
      <feFlood flood-color="#515151" flood-opacity="0.129"/>
      <feComposite operator="in" in2="blur"/>
      <feComposite in="SourceGraphic"/>
    </filter>
  </defs>
  <g id="Group_48246" data-name="Group 48246" transform="translate(-533.936 -1510.305)">
    <g id="Group_48245" data-name="Group 48245" transform="translate(182.936 625.305)">
      <g transform="matrix(1, 0, 0, 1, 351, 885)" filter="url(#Path_42967)">
        <path id="Path_42967-2" data-name="Path 42967" d="M35.6,0A35.6,35.6,0,1,1,0,35.6,35.6,35.6,0,0,1,35.6,0Z" transform="translate(9 6)" fill="#eef2ff"/>
      </g>
    </g>
    <g id="question-mark" transform="translate(426.501 1538.57)">
      <path id="Path_42997" data-name="Path 42997" d="M398.223,788.2h-1.288a1.646,1.646,0,0,0-1.645,1.645v1.779a1.646,1.646,0,0,0,1.645,1.645h1.288a1.646,1.646,0,0,0,1.645-1.645v-1.779A1.644,1.644,0,0,0,398.223,788.2Z" transform="translate(-245.754 -766.594)" fill="#8eaec4"/>
      <path id="Path_42998" data-name="Path 42998" d="M143.385,7.834l2.376.3A1.646,1.646,0,0,0,147.5,7.08a5.07,5.07,0,0,1,1.431-2.119,4.848,4.848,0,0,1,3.232-1.1,4.637,4.637,0,0,1,3.188,1.05,3.258,3.258,0,0,1,1.181,2.524,3.142,3.142,0,0,1-.666,1.941,21.989,21.989,0,0,1-2.651,2.355,11.167,11.167,0,0,0-2.958,3.237,7.491,7.491,0,0,0-.724,3.16,1.645,1.645,0,0,0,1.645,1.713h1.343a1.648,1.648,0,0,0,1.639-1.5,4.152,4.152,0,0,1,.31-1.39,7.722,7.722,0,0,1,1.993-2.141,20.69,20.69,0,0,0,4.051-4.065,5.82,5.82,0,0,0,.948-3.166,6.892,6.892,0,0,0-2.577-5.3A10.089,10.089,0,0,0,151.953,0a9.738,9.738,0,0,0-6.691,2.248,7.753,7.753,0,0,0-2.637,4.536A.886.886,0,0,0,143.385,7.834Z" transform="translate(0)"/>
    </g>
  </g>
</svg>
