<?xml version="1.0" standalone="no"?>
<!DOCTYPE svg PUBLIC "-//W3C//DTD SVG 20010904//EN"
 "http://www.w3.org/TR/2001/REC-SVG-20010904/DTD/svg10.dtd">
<svg version="1.0" xmlns="http://www.w3.org/2000/svg"
 width="40.000000pt" height="40.000000pt" viewBox="0 0 40.000000 40.000000"
 preserveAspectRatio="xMidYMid meet">

<g transform="translate(0.000000,40.000000) scale(0.100000,-0.100000)"
fill="#000000" stroke="none">
<path d="M5 381 c3 -10 11 -36 18 -58 l12 -41 42 44 c41 43 39 59 -5 28 -26
-18 -30 -8 -4 13 15 13 15 14 -10 10 -15 -2 -25 -1 -23 3 3 4 -4 10 -16 13
-15 4 -19 2 -14 -12z"/>
<path d="M330 370 c0 -5 4 -10 9 -10 6 0 13 5 16 10 3 6 -1 10 -9 10 -9 0 -16
-4 -16 -10z"/>
<path d="M230 350 c0 -5 7 -10 16 -10 8 0 12 5 9 10 -3 6 -10 10 -16 10 -5 0
-9 -4 -9 -10z"/>
<path d="M93 273 c-7 -2 -13 -9 -13 -14 0 -6 9 -5 21 2 12 6 30 9 40 6 10 -3
19 -1 19 4 0 9 -46 11 -67 2z"/>
<path d="M270 270 c14 -4 32 -8 40 -9 13 -1 13 0 0 9 -8 5 -26 9 -40 9 l-25
-1 25 -8z"/>
<path d="M114 205 c-18 -14 -17 -14 18 -12 23 1 38 7 38 15 0 17 -32 15 -56
-3z"/>
<path d="M225 210 c-3 -5 -5 -10 -3 -11 2 0 21 -2 43 -5 37 -4 39 -3 21 11
-23 17 -52 20 -61 5z"/>
<path d="M352 158 c-7 -7 -12 -21 -12 -31 0 -17 -5 -19 -37 -13 -21 3 -43 6
-50 6 -7 0 -10 7 -7 15 4 8 2 15 -4 15 -6 0 -19 3 -29 6 -16 6 -16 5 2 -9 17
-14 18 -18 5 -27 -13 -9 -13 -11 0 -20 13 -9 13 -11 0 -20 -13 -8 -12 -10 3
-10 10 0 20 7 23 15 4 10 14 13 33 9 39 -10 43 -14 29 -32 -7 -10 3 -3 23 13
20 17 44 35 55 41 15 10 17 16 8 30 -14 23 -27 27 -42 12z"/>
<path d="M25 130 c-8 -13 -1 -24 14 -19 6 3 7 10 2 18 -6 10 -10 10 -16 1z"/>
<path d="M70 75 c13 -14 26 -25 28 -25 3 0 -5 11 -18 25 -13 14 -26 25 -28 25
-3 0 5 -11 18 -25z"/>
<path d="M30 40 c0 -5 5 -10 10 -10 6 0 10 5 10 10 0 6 -4 10 -10 10 -5 0 -10
-4 -10 -10z"/>
<path d="M273 43 c-15 -5 -17 -23 -4 -23 5 0 11 7 15 15 3 8 4 15 3 14 -1 0
-8 -3 -14 -6z"/>
<path d="M178 23 c12 -2 32 -2 45 0 12 2 2 4 -23 4 -25 0 -35 -2 -22 -4z"/>
</g>
</svg>
