<svg xmlns="http://www.w3.org/2000/svg" xmlns:xlink="http://www.w3.org/1999/xlink" width="89.204" height="89.204" viewBox="0 0 89.204 89.204">
  <defs>
    <filter id="Path_42967" x="0" y="0" width="89.204" height="89.204" filterUnits="userSpaceOnUse">
      <feOffset dy="3" input="SourceAlpha"/>
      <feGaussianBlur stdDeviation="3" result="blur"/>
      <feFlood flood-color="#515151" flood-opacity="0.129"/>
      <feComposite operator="in" in2="blur"/>
      <feComposite in="SourceGraphic"/>
    </filter>
  </defs>
  <g id="Group_48186" data-name="Group 48186" transform="translate(-194.5 -327.862)">
    <g id="Group_48160" data-name="Group 48160" transform="translate(-156.5 -557.138)">
      <g transform="matrix(1, 0, 0, 1, 351, 885)" filter="url(#Path_42967)">
        <path id="Path_42967-2" data-name="Path 42967" d="M35.6,0A35.6,35.6,0,1,1,0,35.6,35.6,35.6,0,0,1,35.6,0Z" transform="translate(9 6)" fill="#fff"/>
      </g>
    </g>
    <g id="open-book" transform="translate(223.511 322.505)">
      <g id="Group_48181" data-name="Group 48181" transform="translate(0 35.048)">
        <g id="Group_48180" data-name="Group 48180" transform="translate(0 0)">
          <path id="Path_42971" data-name="Path 42971" d="M35.946,35.049h0a1.1,1.1,0,0,0-.782.324,1.111,1.111,0,0,0-.328.792V52.9a1.12,1.12,0,0,0,1.117,1.116c2.6.006,6.949.548,9.95,3.689V40.191a1.069,1.069,0,0,0-.153-.565C43.283,35.658,38.549,35.055,35.946,35.049Z" transform="translate(-31.176 -35.049)" fill="#8eaec4"/>
          <path id="Path_42972" data-name="Path 42972" d="M167.818,52.9V36.164a1.114,1.114,0,0,0-1.11-1.116h0c-2.6.006-7.338.609-9.8,4.577a1.069,1.069,0,0,0-.153.565V57.7c3-3.141,7.353-3.683,9.95-3.689A1.12,1.12,0,0,0,167.818,52.9Z" transform="translate(-140.294 -35.048)" fill="#8eaec4"/>
          <path id="Path_42973" data-name="Path 42973" d="M183.544,71.8h-.809V85.79a2.855,2.855,0,0,1-2.845,2.848c-2.2.005-5.835.436-8.408,2.871a26.861,26.861,0,0,1,11.813.228,1.116,1.116,0,0,0,1.365-1.087V72.917A1.117,1.117,0,0,0,183.544,71.8Z" transform="translate(-153.478 -67.942)"/>
          <path id="Path_42974" data-name="Path 42974" d="M1.925,85.79V71.8H1.116A1.117,1.117,0,0,0,0,72.917V90.649a1.116,1.116,0,0,0,1.365,1.087,26.859,26.859,0,0,1,11.812-.228c-2.572-2.435-6.2-2.865-8.408-2.871A2.855,2.855,0,0,1,1.925,85.79Z" transform="translate(0 -67.942)"/>
        </g>
      </g>
    </g>
  </g>
</svg>
